<svg width="50" height="50" viewBox="0 0 50 50" fill="none" xmlns="http://www.w3.org/2000/svg">
<rect width="50" height="50" fill="#16A085"/>
<path fill-rule="evenodd" clip-rule="evenodd" d="M31.6117 43.3677L29.76 41.4098C27.0919 43.1114 23.4462 44 19.6713 44C15.7131 44 12.3111 43.0491 9.86078 41.1447C7.36519 39.2051 6 36.382 6 33.0097C6 30.8291 6.54068 28.8927 7.74004 27.1619C8.89237 25.499 10.5841 24.125 12.7478 22.8951C10.5617 20.3885 9.52191 18.2358 9.52191 15.6319C9.52191 9.78668 14.9018 6 21.2679 6C24.4806 6 27.3323 6.87127 29.4178 8.51723C31.5309 10.185 32.779 12.5958 32.779 15.4212C32.779 17.6151 32.0522 19.5649 30.7172 21.2934H39.2359V25.6792C39.2359 29.0216 38.3533 32.3317 36.7848 34.8773L45 43.3677H31.6117ZM34.7216 35.0473C36.5295 32.7287 37.633 29.2625 37.633 25.6792V22.8922H30.9414V25.0937C30.9414 26.4088 30.8265 27.5193 30.5968 28.4446C30.4379 29.0848 30.2241 29.6363 29.9552 30.1056L24.5315 24.274C25.0272 23.9993 25.495 23.7188 25.9351 23.4323C29.4346 21.1541 31.1762 18.5002 31.1762 15.4212C31.1762 10.784 27.1377 7.59882 21.2679 7.59882C15.4215 7.59882 11.1248 10.9947 11.1248 15.6319C11.1248 17.7789 11.9677 19.6281 14.1851 22.1036C14.5317 22.4905 14.9118 22.8927 15.3276 23.3137C15.2988 23.3137 14.7572 23.6136 14.2996 23.8669C14.1342 23.9585 13.9798 24.044 13.8645 24.107C13.7789 24.1538 13.7149 24.1883 13.684 24.2037C9.45773 26.5692 7.60286 29.2156 7.60286 33.0097C7.60286 38.8179 12.2283 42.4012 19.6713 42.4012C23.8271 42.4012 27.6308 41.2536 29.9552 39.2863L32.3032 41.7688H41.2253L34.7216 35.0473ZM27.0393 24.6196L29.235 26.9804C29.3016 26.4361 29.3385 25.8108 29.3385 25.0937V22.805C28.6612 23.4437 27.8923 24.0481 27.0393 24.6196ZM18.9669 27.4591L25.7759 34.7428C25.6028 34.9429 25.4007 35.1299 25.1741 35.3025C24.9709 35.4574 24.7479 35.6006 24.5086 35.7315C23.4222 36.3254 21.9975 36.6632 20.54 36.6632C17.3468 36.6632 15.1867 34.9301 15.1867 32.3071C15.1867 30.5037 16.032 29.2156 18.1216 27.8807C18.3095 27.7636 18.7086 27.5528 18.9669 27.4591ZM23.3674 34.5107L18.6416 29.4555C17.9093 29.9608 17.4719 30.4005 17.2084 30.7988C16.9283 31.2222 16.7896 31.681 16.7896 32.3071C16.7896 33.1413 17.1153 33.773 17.6767 34.228C18.2672 34.7066 19.2214 35.0644 20.54 35.0644C21.6398 35.0644 22.6202 34.8398 23.3674 34.5107ZM21.1431 18.6462C19.7941 17.2497 19.6071 16.622 19.6071 16.0535C19.6071 15.078 20.2595 14.3969 21.3148 14.3969C21.8714 14.3969 22.2605 14.5888 22.5089 14.8392C22.7588 15.091 22.9521 15.4888 22.9521 16.0535C22.9521 16.6139 22.7952 17.077 22.421 17.5455C22.1468 17.8886 21.7382 18.2553 21.1431 18.6462ZM18.0042 16.0535C18.0042 17.4587 18.7556 18.6297 20.8922 20.6438C23.428 19.3089 24.555 17.9037 24.555 16.0535C24.555 14.1565 23.2167 12.7981 21.3148 12.7981C19.3895 12.7981 18.0042 14.1799 18.0042 16.0535Z" fill="white"/>
</svg>
