<svg class="logo" viewBox="0 0 126 71" fill="none" xmlns="http://www.w3.org/2000/svg">
<rect class="square" width="50" height="50" fill="#16A085"/>
<path d="M52.5417 58.0362C52.3472 57.1525 51.8369 56.4193 51.0105 55.8367C50.1842 55.2443 48.9058 54.6908 47.1754 54.1762C45.445 53.6518 44.1666 53.1274 43.3403 52.603C42.514 52.0689 41.9307 51.4426 41.5904 50.724C41.2599 50.0054 41.1724 49.2043 41.3279 48.3206C41.4932 47.2815 41.9355 46.3736 42.6549 45.5967C43.3743 44.8102 44.293 44.2032 45.411 43.776C46.5387 43.3487 47.7344 43.1351 48.9982 43.1351C50.2523 43.1351 51.3605 43.407 52.3229 43.9508C53.2951 44.4946 53.9999 45.2423 54.4373 46.1939C54.8845 47.1456 55.0304 48.2138 54.8748 49.3985H54.0874C54.3304 47.8156 53.9707 46.5095 53.0083 45.4802C52.0459 44.4412 50.714 43.9216 49.0128 43.9216C47.4282 43.9216 45.9942 44.2809 44.711 44.9995C43.4278 45.7084 42.6063 46.6552 42.2466 47.8399C42.0327 48.5488 41.9939 49.1848 42.13 49.7481C42.3244 50.6123 42.8542 51.3309 43.7194 51.9038C44.5944 52.4671 45.7998 52.9672 47.3358 53.4042C49.7079 54.0742 51.3605 54.9045 52.2938 55.895C53.227 56.8855 53.5721 58.0944 53.3291 59.5219C53.1638 60.5998 52.7118 61.5466 51.973 62.3623C51.2438 63.1683 50.3009 63.7995 49.144 64.2559C47.9871 64.7026 46.7622 64.9259 45.4693 64.9259C43.2528 64.9259 41.5321 64.353 40.3072 63.2071C39.0823 62.0613 38.6011 60.5415 38.8635 58.6479H39.651C39.4079 60.3182 39.8211 61.6534 40.8905 62.6536C41.9598 63.6441 43.4812 64.1394 45.4547 64.1394C47.0393 64.1394 48.4732 63.7898 49.7565 63.0906C51.0397 62.3817 51.8952 61.4398 52.3229 60.2648C52.6146 59.4588 52.6875 58.7159 52.5417 58.0362Z" fill="white"/>
<path d="M61.2327 44.6208L60.5035 48.8741H63.9595L63.8575 49.6752H60.3577L58.36 61.2116L58.3016 62.0127C58.2725 62.673 58.4086 63.1926 58.7099 63.5713C59.0113 63.9403 59.4682 64.1297 60.0807 64.1394C60.3529 64.1394 60.8827 64.0957 61.6701 64.0083L61.6993 64.7511C61.2521 64.8677 60.7223 64.9259 60.1098 64.9259C58.4572 64.9259 57.5968 64.0762 57.5288 62.3769C57.5093 61.8816 57.5434 61.3767 57.6309 60.862L59.5557 49.6752H56.7413L56.858 48.8741H59.7015L60.4306 44.6208H61.2327Z" fill="white"/>
<path d="M70.2299 63.4111L70.3757 63.1052L78.148 48.8887H79.0375L69.0633 67.2856C68.3439 68.6451 67.6148 69.5968 66.876 70.1406C66.1371 70.6941 65.3157 70.9806 64.4116 71C64.0422 71 63.6533 70.9466 63.245 70.8398L63.3325 70.0969C63.8283 70.1843 64.1588 70.228 64.3241 70.228C65.617 70.228 66.735 69.5094 67.678 68.0722L68.2613 67.1109L69.6758 64.4744L66.2635 48.8595H67.0947L70.2299 63.4111Z" fill="white"/>
<path d="M80.3499 64.6346H79.5625L83.4122 42.2611H84.1996L80.3499 64.6346Z" fill="white"/>
<path d="M86.4745 64.6346H85.687L88.3993 48.8741H89.1867L86.4745 64.6346ZM88.8659 43.9216C88.8951 43.7274 88.9972 43.5478 89.1722 43.3827C89.3569 43.2176 89.5513 43.1351 89.7555 43.1351C89.979 43.1351 90.1589 43.2225 90.295 43.3972C90.4408 43.572 90.4943 43.7663 90.4554 43.9799C90.4262 44.1741 90.3193 44.3538 90.1346 44.5188C89.9499 44.6742 89.7555 44.7519 89.5513 44.7519C89.3277 44.7422 89.1479 44.6548 89.0118 44.4897C88.8757 44.3246 88.8271 44.1353 88.8659 43.9216Z" fill="white"/>
<path d="M94.4363 52.5448C95.2238 51.2727 96.1522 50.2967 97.2215 49.617C98.2909 48.9275 99.3943 48.5828 100.532 48.5828C101.737 48.5828 102.685 48.8935 103.375 49.515C104.065 50.1365 104.464 51.0347 104.571 52.2097C104.629 52.9478 104.59 53.7198 104.454 54.5257L102.704 64.6346H101.917L103.667 54.5257C103.784 53.846 103.832 53.176 103.813 52.5156C103.764 51.4863 103.458 50.6997 102.894 50.1559C102.34 49.6121 101.543 49.3451 100.503 49.3548C99.1707 49.3742 97.8875 49.8937 96.6528 50.9134C95.4279 51.9233 94.5967 53.1323 94.1593 54.5403L92.4094 64.6346H91.622L94.3343 48.8741H95.1217L94.4363 52.5448Z" fill="white"/>
<path d="M108.289 56.5941C108.562 55.0113 109.038 53.5935 109.718 52.3408C110.409 51.0881 111.24 50.1511 112.212 49.5296C113.184 48.8984 114.244 48.5828 115.391 48.5828C116.528 48.5828 117.501 48.8692 118.307 49.4422C119.124 50.0054 119.707 50.7774 120.057 51.7582L120.582 48.8741H121.37L118.759 64.0811C118.39 66.2466 117.578 67.9363 116.324 69.1501C115.08 70.3737 113.583 70.9854 111.833 70.9854C109.84 70.9854 108.294 70.092 107.196 68.3053L107.794 67.81C108.795 69.4123 110.127 70.2134 111.789 70.2134C113.306 70.2134 114.608 69.6988 115.697 68.6694C116.796 67.6498 117.53 66.2078 117.899 64.3433L118.337 62.1438C117.637 63.0275 116.801 63.7121 115.828 64.1976C114.866 64.6832 113.816 64.9259 112.679 64.9259C111.648 64.9259 110.783 64.6735 110.083 64.1685C109.383 63.6538 108.863 62.9061 108.523 61.9253C108.192 60.9348 108.046 59.8472 108.085 58.6625C108.105 58.109 108.173 57.4195 108.289 56.5941ZM108.873 58.444C108.746 60.2114 109.009 61.6049 109.66 62.6245C110.321 63.6344 111.318 64.1394 112.65 64.1394C113.904 64.1394 115.036 63.8335 116.047 63.2217C117.058 62.6002 117.885 61.7311 118.526 60.6144L119.809 53.4624C119.615 52.1321 119.134 51.1173 118.366 50.4181C117.607 49.7189 116.616 49.3693 115.391 49.3693C114.147 49.3693 113.038 49.7869 112.066 50.622C111.094 51.4572 110.341 52.603 109.806 54.0596C109.271 55.5162 108.96 56.9777 108.873 58.444Z" fill="white"/>
<path d="M25.6014 31.4861H16.8959V14.7788H11.5442V35.7976H25.6014V31.4861Z" fill="white"/>
<path d="M41.8898 35.7976H47.5768L40.5045 14.7788H33.957L26.8847 35.7976H32.3384L33.68 31.1802H40.5628L41.8898 35.7976ZM37.0631 19.236H37.1797L39.5129 27.3347H34.7153L37.0631 19.236Z" fill="white"/>
<path d="M57.9448 35.7976V28.5729L65.1921 14.7788H59.5488L55.3783 23.5184H55.2762L51.0911 14.7788H45.3457L52.5931 28.5729V35.7976H57.9448Z" fill="white"/>
<path d="M75.6622 14.4146C69.2897 14.4146 65.265 18.5951 65.265 25.2955C65.265 31.9959 69.2752 36.1618 75.6622 36.1618C82.0346 36.1618 86.0447 31.9959 86.0447 25.2955C86.0447 18.5951 82.0346 14.4146 75.6622 14.4146ZM75.6622 18.7553C78.6515 18.7553 80.6055 21.2898 80.6055 25.2955C80.6055 29.2866 78.6515 31.8211 75.6622 31.8211C72.6582 31.8211 70.7188 29.2866 70.7188 25.2955C70.7188 21.2898 72.6728 18.7553 75.6622 18.7553Z" fill="white"/>
<path d="M94.0066 14.7788H88.6549V28.3398C88.6549 33.0592 92.2421 36.1618 97.725 36.1618C103.193 36.1618 106.781 33.0592 106.781 28.3398V14.7788H101.429V27.7717C101.429 30.2188 100.102 31.6754 97.725 31.6754C95.3336 31.6754 94.0066 30.2188 94.0066 27.7717V14.7788Z" fill="white"/>
<path d="M120.196 35.7976V19.0903H126V14.7788H109.055V19.0903H114.859V35.7976H120.196Z" fill="white"/>
<path fill-rule="evenodd" clip-rule="evenodd" d="M25.7408 65.629L24.5907 64.4113C22.9337 65.4696 20.6694 66.0223 18.325 66.0223C15.8667 66.0223 13.7538 65.4309 12.232 64.2464C10.6821 63.0401 9.83423 61.2843 9.83423 59.1869C9.83423 57.8307 10.17 56.6263 10.9149 55.5499C11.6306 54.5156 12.6813 53.6611 14.025 52.8962C12.6674 51.3372 12.0216 49.9983 12.0216 48.3789C12.0216 44.7434 15.3628 42.3883 19.3166 42.3883C21.3118 42.3883 23.083 42.9302 24.3782 43.9539C25.6906 44.9912 26.4657 46.4905 26.4657 48.2478C26.4657 49.6123 26.0143 50.8249 25.1852 51.9H30.4758V54.6277C30.4758 56.7065 29.9277 58.7652 28.9535 60.3485L34.0557 65.629H25.7408ZM27.6722 60.4541C28.795 59.0121 29.4804 56.8563 29.4804 54.6277V52.8943H25.3244V54.2636C25.3244 55.0815 25.2531 55.7722 25.1104 56.3477C25.0118 56.7458 24.8789 57.0888 24.712 57.3807L21.3435 53.7537C21.6513 53.5829 21.9419 53.4084 22.2152 53.2303C24.3886 51.8134 25.4702 50.1627 25.4702 48.2478C25.4702 45.3637 22.9621 43.3827 19.3166 43.3827C15.6856 43.3827 13.017 45.4948 13.017 48.3789C13.017 49.7142 13.5405 50.8642 14.9177 52.4039C15.1329 52.6445 15.369 52.8947 15.6273 53.1565C15.6094 53.1565 15.273 53.343 14.9888 53.5006C14.8861 53.5575 14.7902 53.6107 14.7186 53.6499C14.6654 53.679 14.6257 53.7005 14.6065 53.71C11.9817 55.1812 10.8297 56.8272 10.8297 59.1869C10.8297 62.7993 13.7024 65.0279 18.325 65.0279C20.906 65.0279 23.2683 64.3142 24.712 63.0906L26.1702 64.6346H31.7114L27.6722 60.4541ZM22.901 53.9687L24.2647 55.437C24.306 55.0984 24.3289 54.7095 24.3289 54.2636V52.8401C23.9083 53.2374 23.4307 53.6132 22.901 53.9687ZM17.8875 55.7347L22.1163 60.2648C22.0088 60.3893 21.8833 60.5056 21.7426 60.6129C21.6164 60.7092 21.4779 60.7983 21.3293 60.8797C20.6545 61.2491 19.7697 61.4592 18.8645 61.4592C16.8813 61.4592 15.5398 60.3813 15.5398 58.7499C15.5398 57.6283 16.0647 56.8272 17.3625 55.9969C17.4792 55.9241 17.7271 55.793 17.8875 55.7347ZM20.6205 60.1205L17.6855 56.9764C17.2306 57.2907 16.959 57.5641 16.7954 57.8118C16.6214 58.0752 16.5352 58.3605 16.5352 58.7499C16.5352 59.2688 16.7375 59.6616 17.0862 59.9446C17.453 60.2423 18.0455 60.4648 18.8645 60.4648C19.5476 60.4648 20.1564 60.3251 20.6205 60.1205ZM19.2391 50.2535C18.4013 49.385 18.2851 48.9946 18.2851 48.641C18.2851 48.0343 18.6903 47.6107 19.3457 47.6107C19.6914 47.6107 19.933 47.7301 20.0873 47.8858C20.2425 48.0424 20.3626 48.2899 20.3626 48.641C20.3626 48.9896 20.2651 49.2776 20.0327 49.569C19.8624 49.7824 19.6087 50.0104 19.2391 50.2535ZM17.2896 48.641C17.2896 49.515 17.7563 50.2433 19.0832 51.496C20.6581 50.6657 21.3581 49.7918 21.3581 48.641C21.3581 47.4612 20.5269 46.6164 19.3457 46.6164C18.15 46.6164 17.2896 47.4758 17.2896 48.641Z" fill="white"/>
</svg>